<?xml version="1.0" standalone="no"?>
<!DOCTYPE svg PUBLIC "-//W3C//DTD SVG 20010904//EN"
 "http://www.w3.org/TR/2001/REC-SVG-20010904/DTD/svg10.dtd">
<svg version="1.0" xmlns="http://www.w3.org/2000/svg"
 width="1024.000000pt" height="1024.000000pt" viewBox="0 0 1024.000000 1024.000000"
 preserveAspectRatio="xMidYMid meet">

<g transform="translate(0.000000,1024.000000) scale(0.100000,-0.100000)"
fill="#000000" stroke="none">
<path d="M4760 8265 c-147 -19 -251 -40 -427 -85 -709 -183 -1363 -633 -1764
-1215 -262 -379 -425 -754 -508 -1166 -56 -277 -66 -380 -65 -669 1 -401 40
-651 156 -995 65 -194 179 -455 198 -455 4 0 11 11 14 25 4 14 36 94 71 178
36 84 65 156 65 160 0 5 -11 23 -24 40 -53 71 -135 346 -178 592 -20 116 -22
164 -23 440 0 209 5 336 13 390 89 544 295 1019 611 1413 105 131 323 349 446
447 366 293 793 495 1235 585 160 33 352 50 560 50 280 0 516 -31 780 -101 63
-17 123 -32 134 -33 13 -1 31 22 65 81 67 121 86 115 202 -60 32 -48 73 -115
91 -148 31 -57 39 -64 113 -101 249 -126 567 -377 764 -603 395 -453 625 -946
712 -1525 18 -120 22 -186 21 -390 -1 -518 -78 -901 -267 -1328 -33 -74 -35
-86 -25 -117 34 -102 152 -98 214 7 52 89 160 347 213 508 188 574 193 1225
12 1855 -127 440 -372 872 -702 1236 -316 348 -779 653 -1257 826 -126 46
-414 116 -586 143 -116 19 -190 23 -449 26 -222 2 -340 -1 -415 -11z"/>
<path d="M6185 7826 c-33 -50 -154 -336 -199 -469 -88 -263 -123 -452 -132
-712 -7 -186 8 -317 47 -403 l19 -45 -41 -41 c-57 -56 -85 -103 -113 -188
l-23 -71 -109 -22 c-150 -31 -245 -64 -409 -144 -160 -79 -337 -194 -475 -309
-186 -155 -444 -445 -407 -457 58 -18 141 -27 317 -32 229 -6 387 8 572 53
304 73 517 176 706 340 40 35 77 64 83 64 12 0 12 -87 -1 -320 -5 -102 -17
-342 -25 -535 -8 -192 -19 -442 -25 -555 -5 -113 -12 -261 -15 -330 -3 -69
-10 -215 -15 -325 -21 -431 -30 -619 -30 -642 0 -29 -26 -41 -150 -73 -496
-127 -1018 -101 -1507 76 -193 69 -375 161 -537 271 l-79 53 -179 0 c-115 0
-177 -4 -173 -10 12 -19 172 -139 285 -213 372 -244 728 -378 1175 -443 153
-23 592 -26 735 -6 444 63 765 169 1115 370 364 210 640 465 858 797 130 198
269 496 323 692 14 52 15 67 4 93 -16 38 -48 61 -89 62 -55 2 -76 -23 -112
-129 -88 -265 -231 -536 -389 -736 -182 -229 -466 -468 -703 -591 -96 -50 -97
-50 -97 37 -1 39 -5 160 -10 267 -5 107 -19 420 -30 695 -39 966 -56 1349 -66
1471 l-5 70 43 17 43 17 44 -52 c148 -175 371 -349 596 -463 110 -56 336 -135
459 -160 82 -16 305 -37 318 -28 11 6 -187 397 -256 507 -87 137 -209 288
-326 399 -179 171 -340 266 -534 314 -98 25 -108 29 -127 60 -12 19 -42 59
-68 89 l-47 54 42 86 c70 143 79 195 78 454 0 168 -5 249 -18 320 -36 201 -95
383 -184 570 -42 90 -126 230 -137 230 -2 0 -12 -11 -20 -24z m105 -421 c74
-211 100 -359 101 -568 0 -174 -27 -341 -80 -483 l-29 -79 -90 -3 -90 -3 -7
88 c-17 193 15 604 76 988 42 267 36 249 64 195 12 -25 37 -85 55 -135z m-32
-1310 c46 -20 108 -78 133 -127 49 -96 29 -202 -54 -283 -102 -99 -233 -102
-337 -8 -73 65 -94 117 -87 212 3 43 12 92 21 108 18 36 68 80 111 99 42 18
167 18 213 -1z m425 -337 c185 -57 543 -342 712 -566 67 -90 168 -253 160
-260 -2 -3 -30 6 -62 18 -261 104 -646 357 -870 573 -115 111 -112 104 -79
197 9 25 19 51 21 58 5 14 8 14 118 -20z m-859 -140 c21 -28 40 -57 43 -63 7
-19 -98 -108 -230 -197 -201 -134 -430 -235 -632 -277 -114 -23 -316 -36 -389
-24 l-49 8 114 80 c200 141 521 318 744 411 109 45 312 113 340 114 13 0 34
-19 59 -52z"/>
<path d="M6102 5984 c-63 -32 -91 -95 -73 -162 39 -142 251 -128 276 18 8 47
-15 103 -56 133 -37 27 -106 32 -147 11z"/>
<path d="M2878 6312 c-81 -29 -136 -76 -166 -140 l-27 -57 0 -855 0 -855 23
-46 22 -46 -99 -244 c-55 -134 -127 -309 -160 -388 -66 -155 -81 -221 -69
-290 18 -105 109 -204 218 -239 51 -16 157 -17 1470 -17 l1415 0 66 33 c109
53 169 138 176 252 6 78 1 93 -183 590 l-128 345 -7 135 c-4 74 -7 201 -8 282
l-1 147 -54 -19 c-29 -10 -79 -23 -110 -30 l-56 -11 0 -195 0 -196 -29 -29
-29 -29 -1077 0 -1077 0 -34 34 -34 34 0 775 c0 470 4 786 10 801 22 59 -29
56 1132 56 1036 0 1064 -1 1095 -20 38 -23 46 -55 41 -159 -2 -47 1 -71 8 -71
6 0 58 20 115 44 l104 43 -1 99 c0 73 -5 108 -17 131 -25 48 -84 103 -136 127
-46 21 -47 21 -1196 23 -1066 2 -1153 1 -1197 -15z m2346 -2136 c18 -7 42 -25
53 -40 12 -15 67 -165 124 -335 96 -290 102 -310 89 -340 -7 -17 -27 -42 -44
-54 l-31 -22 -1315 -3 c-909 -2 -1326 0 -1352 8 -42 12 -88 61 -88 95 0 12 46
144 101 291 56 148 108 287 116 309 16 44 47 83 78 95 11 5 519 9 1128 9 920
1 1113 -1 1141 -13z"/>
<path d="M3037 4002 c-15 -37 -27 -71 -27 -75 0 -4 39 -6 87 -5 l87 3 18 60
c26 88 28 85 -59 85 l-78 0 -28 -68z"/>
<path d="M3375 4058 c-27 -74 -42 -127 -38 -132 4 -3 46 -6 94 -6 98 0 94 -4
105 89 l7 61 -82 0 c-56 0 -83 -4 -86 -12z"/>
<path d="M3696 4058 c-10 -32 -26 -108 -26 -122 0 -13 16 -16 95 -16 l95 0 0
75 0 75 -80 0 c-56 0 -82 -4 -84 -12z"/>
<path d="M4006 4053 c-3 -10 -6 -43 -8 -73 l-2 -55 92 -3 92 -3 0 76 0 75 -84
0 c-72 0 -85 -3 -90 -17z"/>
<path d="M4328 4063 c-2 -4 -2 -39 0 -76 l4 -68 91 3 92 3 -3 42 c-2 23 -7 55
-11 70 -7 27 -9 28 -88 31 -45 1 -83 -1 -85 -5z"/>
<path d="M4648 4065 c-2 -3 -1 -28 3 -57 4 -29 8 -61 8 -70 1 -16 12 -18 91
-18 102 0 98 -5 79 93 l-12 57 -82 0 c-45 0 -84 -2 -87 -5z"/>
<path d="M4970 4058 c0 -6 5 -38 12 -70 l12 -58 89 0 c67 0 88 3 84 13 -2 6
-13 38 -23 70 l-18 57 -78 0 c-54 0 -78 -4 -78 -12z"/>
<path d="M2950 3743 c-13 -38 -25 -74 -28 -80 -3 -10 19 -13 90 -13 l95 0 21
74 c12 41 22 77 22 80 0 3 -40 6 -88 6 l-88 0 -24 -67z"/>
<path d="M3296 3758 c-8 -29 -18 -65 -22 -80 l-6 -28 104 0 105 0 11 64 c19
103 25 96 -83 96 l-94 0 -15 -52z"/>
<path d="M3640 3738 c-6 -40 -14 -81 -16 -90 -5 -17 22 -18 462 -18 l467 0 -6
38 c-3 20 -9 61 -13 90 l-7 52 -437 0 -438 0 -12 -72z"/>
<path d="M4684 3730 l10 -80 103 0 c117 0 110 -7 91 96 l-11 64 -101 0 -101 0
9 -80z"/>
<path d="M5030 3799 c0 -5 7 -41 16 -80 l16 -69 95 0 c72 0 94 3 91 13 -3 6
-15 42 -27 80 l-23 67 -84 0 c-52 0 -84 -4 -84 -11z"/>
<path d="M3040 5260 l0 -720 908 0 c499 0 958 3 1020 7 l112 6 0 142 0 142
-62 -10 c-35 -5 -162 -9 -283 -9 -180 0 -241 4 -335 21 -63 11 -129 21 -146
21 -27 0 -32 4 -38 31 -16 84 14 155 123 291 176 219 422 426 694 582 l47 28
0 94 0 94 -1020 0 -1020 0 0 -720z"/>
<path d="M3284 2746 c-54 -54 -43 -119 31 -184 45 -41 288 -183 435 -257 288
-144 648 -254 990 -302 184 -25 678 -25 845 0 402 62 695 154 1038 325 203
101 257 141 257 192 0 63 -37 100 -101 100 -17 0 -63 -19 -108 -45 -348 -201
-733 -310 -1191 -339 -244 -16 -308 -17 -459 -7 -535 36 -945 157 -1366 401
-257 149 -259 150 -298 150 -31 0 -46 -7 -73 -34z"/>
</g>
</svg>
